<?xml version="1.0" encoding="utf-8"?>
<!-- Generator: Adobe Illustrator 16.0.0, SVG Export Plug-In . SVG Version: 6.00 Build 0)  -->
<!DOCTYPE svg PUBLIC "-//W3C//DTD SVG 1.1//EN" "http://www.w3.org/Graphics/SVG/1.1/DTD/svg11.dtd">
<svg version="1.1" id="Layer_1" xmlns="http://www.w3.org/2000/svg" xmlns:xlink="http://www.w3.org/1999/xlink" x="0px" y="0px"
	 width="330px" height="330px" viewBox="0 0 330 330" enable-background="new 0 0 330 330" xml:space="preserve">
<circle fill="#D7DF23" cx="165" cy="165" r="165"/>
<g>
	<polygon fill="#FFFFFF" points="174.613,134.683 153.432,180.605 132.253,134.683 127.386,134.683 153.432,193.262 
		179.481,134.683 	"/>
	<polygon fill="#FFFFFF" points="281.943,134.556 255.894,193.135 260.762,193.135 281.943,147.212 303.12,193.135 307.989,193.135 
			"/>
	<g>
		<polygon fill="#FFFFFF" points="188.72,141.483 165.752,193.135 170.619,193.135 191.531,147.799 		"/>
	</g>
	<polygon fill="#009444" points="196.454,134.898 190.661,134.898 193.723,141.784 	"/>
	<polygon fill="#FFFFFF" points="266.022,134.898 244.94,180.605 230.653,149.624 216.364,180.605 198.874,142.682 196.454,147.927 
		216.706,193.477 230.824,161.728 244.94,193.477 270.988,134.898 	"/>
</g>
<circle fill="#FFFFFF" cx="62.379" cy="160.683" r="51.355"/>
<polygon fill="#8DC63F" points="43.411,125.36 43.411,161.057 78.48,143.208 "/>
<polygon fill="#009444" points="87.125,143.04 87.125,187.832 42.898,165.436 "/>
<polygon fill="#39B54A" points="32.826,164.017 32.826,181.602 49.189,172.811 "/>
<polygon fill="#2BB673" points="39.666,164.017 39.666,146.433 23.305,155.224 "/>
<polygon fill="#00A651" points="90.151,150.829 90.151,168.414 106.512,159.62 "/>
<polygon fill="#FFFFFF" points="67.976,188.52 56.782,188.52 62.379,197.68 "/>
<g>
	<path fill="#006838" d="M109.549,262.163c0.054-0.008,0.128-0.015,0.222-0.019c0.095-0.004,0.18-0.006,0.257-0.006
		c0.085,0,0.174,0.002,0.264,0.006c0.089,0.004,0.162,0.011,0.216,0.019l2.804,8.399c-0.047,0.008-0.112,0.014-0.199,0.018
		c-0.086,0.004-0.167,0.006-0.244,0.006c-0.07,0-0.146-0.002-0.223-0.006s-0.144-0.01-0.199-0.018l-0.7-2.139h-3.458l-0.666,2.139
		c-0.062,0.008-0.135,0.014-0.217,0.018c-0.081,0.004-0.157,0.006-0.228,0.006c-0.078,0-0.158-0.002-0.24-0.006
		s-0.146-0.01-0.191-0.018L109.549,262.163z M111.511,267.677l-1.507-4.673l-1.484,4.673H111.511z"/>
	<path fill="#006838" d="M116.827,262.163c0.046-0.008,0.114-0.015,0.203-0.019c0.091-0.004,0.174-0.006,0.252-0.006
		c0.069,0,0.151,0.002,0.244,0.006c0.095,0.004,0.167,0.011,0.223,0.019l2.348,7.604l2.313-7.604
		c0.062-0.008,0.134-0.015,0.216-0.019s0.158-0.006,0.228-0.006c0.078,0,0.161,0.002,0.251,0.006
		c0.089,0.004,0.158,0.011,0.205,0.019l-2.757,8.399c-0.055,0.008-0.132,0.014-0.233,0.018s-0.187,0.006-0.257,0.006
		c-0.078,0-0.164-0.002-0.257-0.006c-0.094-0.004-0.167-0.01-0.222-0.018L116.827,262.163z"/>
	<path fill="#006838" d="M125.063,265.259h-0.748c-0.008-0.039-0.014-0.086-0.018-0.141c-0.004-0.054-0.006-0.112-0.006-0.175
		c0-0.063,0.002-0.125,0.006-0.188c0.004-0.062,0.01-0.112,0.018-0.151h1.52v5.959c-0.046,0.008-0.111,0.014-0.192,0.018
		c-0.082,0.004-0.146,0.006-0.192,0.006c-0.039,0-0.103-0.002-0.188-0.006c-0.086-0.004-0.152-0.01-0.199-0.018V265.259z
		 M124.678,263.145c-0.008-0.069-0.014-0.155-0.018-0.258c-0.005-0.101-0.007-0.187-0.007-0.257c0-0.062,0.002-0.14,0.007-0.233
		c0.004-0.092,0.01-0.17,0.018-0.232c0.07-0.008,0.156-0.014,0.257-0.018c0.102-0.004,0.188-0.006,0.257-0.006
		c0.062,0,0.141,0.002,0.234,0.006c0.093,0.004,0.171,0.01,0.233,0.018c0.008,0.062,0.014,0.141,0.018,0.232
		c0.004,0.094,0.006,0.172,0.006,0.233c0,0.07-0.002,0.156-0.006,0.257c-0.004,0.103-0.01,0.188-0.018,0.258
		c-0.062,0.008-0.141,0.015-0.233,0.018c-0.094,0.005-0.171,0.006-0.234,0.006c-0.069,0-0.155-0.001-0.257-0.006
		C124.834,263.158,124.748,263.152,124.678,263.145z"/>
	<path fill="#006838" d="M127.727,269.745c0.171,0.069,0.394,0.13,0.666,0.181c0.273,0.051,0.534,0.076,0.783,0.076
		c0.467,0,0.837-0.104,1.11-0.311c0.272-0.205,0.408-0.461,0.408-0.766c0-0.21-0.041-0.384-0.123-0.52
		c-0.082-0.137-0.19-0.251-0.326-0.346c-0.138-0.094-0.291-0.17-0.462-0.228c-0.172-0.06-0.347-0.119-0.525-0.183
		c-0.195-0.062-0.388-0.131-0.579-0.209s-0.36-0.178-0.508-0.299c-0.148-0.121-0.268-0.267-0.356-0.438
		c-0.09-0.171-0.134-0.387-0.134-0.643c0-0.476,0.173-0.86,0.521-1.156c0.346-0.297,0.882-0.444,1.605-0.444
		c0.304,0,0.598,0.027,0.882,0.082c0.284,0.056,0.504,0.113,0.66,0.176c-0.039,0.227-0.094,0.447-0.164,0.665
		c-0.164-0.054-0.372-0.107-0.625-0.162c-0.253-0.056-0.516-0.082-0.789-0.082c-0.476,0-0.812,0.084-1.011,0.25
		c-0.199,0.168-0.298,0.389-0.298,0.66c0,0.148,0.033,0.274,0.099,0.381c0.066,0.104,0.156,0.194,0.27,0.269
		c0.112,0.073,0.24,0.139,0.385,0.192c0.144,0.055,0.298,0.104,0.461,0.151c0.21,0.07,0.422,0.146,0.637,0.228
		c0.214,0.082,0.409,0.189,0.584,0.321c0.175,0.134,0.319,0.302,0.434,0.503c0.112,0.202,0.169,0.455,0.169,0.76
		c0,0.281-0.058,0.535-0.169,0.766c-0.113,0.229-0.271,0.425-0.474,0.584c-0.203,0.16-0.443,0.282-0.725,0.368
		s-0.588,0.129-0.923,0.129c-0.374,0-0.707-0.022-0.999-0.07c-0.292-0.047-0.527-0.108-0.707-0.188
		C127.552,270.212,127.625,269.979,127.727,269.745z"/>
	<path fill="#006838" d="M133.124,264.604c0.046-0.008,0.112-0.014,0.198-0.018s0.147-0.006,0.188-0.006
		c0.047,0,0.111,0.002,0.193,0.006s0.146,0.01,0.192,0.018v3.354c0,0.421,0.042,0.766,0.128,1.034
		c0.085,0.269,0.212,0.479,0.38,0.631c0.167,0.151,0.372,0.257,0.613,0.315s0.514,0.088,0.818,0.088
		c0.257,0,0.485-0.015,0.688-0.041c0.203-0.027,0.382-0.064,0.538-0.111v-5.27c0.047-0.008,0.113-0.014,0.199-0.018
		c0.085-0.004,0.147-0.006,0.187-0.006c0.048,0,0.111,0.002,0.193,0.006s0.146,0.01,0.193,0.018v5.807
		c-0.288,0.078-0.609,0.146-0.964,0.205c-0.355,0.059-0.719,0.088-1.093,0.088c-0.365,0-0.711-0.035-1.033-0.105
		c-0.324-0.07-0.604-0.203-0.842-0.402c-0.237-0.198-0.426-0.473-0.566-0.823s-0.21-0.808-0.21-1.367v-3.401H133.124z"/>
	<path fill="#006838" d="M143.171,266.625c0-0.514-0.121-0.891-0.362-1.127c-0.242-0.237-0.6-0.355-1.075-0.355
		c-0.312,0-0.596,0.021-0.853,0.063s-0.487,0.096-0.689,0.157c-0.039-0.069-0.071-0.172-0.1-0.305
		c-0.027-0.132-0.041-0.257-0.041-0.373c0.203-0.062,0.452-0.114,0.748-0.157c0.296-0.044,0.6-0.064,0.911-0.064
		c0.755,0,1.315,0.166,1.682,0.497s0.549,0.852,0.549,1.561v3.937c-0.272,0.056-0.604,0.108-0.992,0.164
		c-0.391,0.056-0.76,0.082-1.11,0.082c-0.725,0-1.295-0.146-1.711-0.433c-0.417-0.289-0.625-0.756-0.625-1.402
		c0-0.312,0.06-0.59,0.181-0.835s0.288-0.451,0.502-0.619c0.214-0.167,0.471-0.294,0.771-0.38c0.3-0.085,0.629-0.128,0.986-0.128
		c0.281,0,0.522,0.01,0.726,0.028c0.202,0.02,0.37,0.037,0.502,0.053L143.171,266.625L143.171,266.625z M143.171,267.665
		c-0.133-0.017-0.298-0.033-0.497-0.054c-0.199-0.019-0.388-0.028-0.567-0.028c-0.584,0-1.036,0.108-1.354,0.327
		c-0.319,0.219-0.479,0.529-0.479,0.935c0,0.259,0.048,0.464,0.146,0.619c0.097,0.156,0.224,0.275,0.38,0.356
		c0.156,0.082,0.327,0.137,0.514,0.164c0.188,0.026,0.374,0.041,0.562,0.041c0.241,0,0.467-0.013,0.678-0.035
		c0.21-0.023,0.417-0.055,0.619-0.094V267.665L143.171,267.665z"/>
	<path fill="#006838" d="M145.881,261.977c0.047-0.009,0.111-0.015,0.193-0.019c0.081-0.004,0.146-0.006,0.192-0.006
		c0.039,0,0.102,0.002,0.188,0.006c0.085,0.004,0.151,0.01,0.198,0.019v7.207c0,0.203,0.023,0.36,0.07,0.475
		c0.047,0.113,0.105,0.193,0.175,0.244c0.07,0.052,0.148,0.082,0.234,0.095c0.085,0.012,0.164,0.019,0.232,0.019
		c0.086,0,0.176-0.007,0.27-0.019c0.094-0.013,0.171-0.024,0.234-0.041c0.038,0.094,0.065,0.194,0.082,0.304
		c0.016,0.11,0.026,0.21,0.034,0.305c-0.108,0.039-0.231,0.065-0.367,0.082c-0.137,0.016-0.264,0.022-0.38,0.022
		c-0.163,0-0.326-0.019-0.49-0.053c-0.164-0.035-0.311-0.103-0.438-0.199s-0.231-0.229-0.31-0.396
		c-0.078-0.168-0.117-0.389-0.117-0.66L145.881,261.977L145.881,261.977z"/>
	<path fill="#006838" d="M151.453,262.163c0.047-0.008,0.116-0.015,0.21-0.019c0.093-0.004,0.179-0.006,0.257-0.006
		c0.07,0,0.151,0.002,0.246,0.006c0.093,0.004,0.167,0.011,0.222,0.019l1.624,7.5l1.928-7.5c0.047-0.008,0.123-0.015,0.229-0.019
		c0.104-0.004,0.192-0.006,0.263-0.006c0.062,0,0.148,0.002,0.257,0.006c0.109,0.004,0.191,0.011,0.246,0.019l1.916,7.5l1.647-7.5
		c0.062-0.008,0.13-0.015,0.205-0.019c0.073-0.004,0.146-0.006,0.216-0.006c0.078,0,0.162,0.002,0.251,0.006
		s0.158,0.011,0.204,0.019l-2.033,8.399c-0.054,0.008-0.136,0.014-0.245,0.018s-0.199,0.006-0.269,0.006
		c-0.078,0-0.175-0.002-0.287-0.006c-0.113-0.004-0.197-0.01-0.251-0.018l-1.881-7.313l-1.869,7.313
		c-0.056,0.008-0.137,0.014-0.246,0.018s-0.198,0.006-0.27,0.006c-0.078,0-0.173-0.002-0.286-0.006
		c-0.112-0.004-0.196-0.01-0.251-0.018L151.453,262.163z"/>
	<path fill="#006838" d="M162.844,267.7c0,0.795,0.183,1.379,0.549,1.753c0.366,0.373,0.915,0.561,1.647,0.561
		c0.296,0,0.57-0.024,0.822-0.076c0.255-0.051,0.501-0.119,0.742-0.203c0.039,0.084,0.07,0.189,0.095,0.314
		c0.022,0.124,0.038,0.237,0.047,0.34c-0.228,0.101-0.49,0.178-0.795,0.232c-0.304,0.055-0.636,0.082-0.993,0.082
		c-0.515,0-0.956-0.076-1.326-0.229c-0.37-0.151-0.673-0.363-0.911-0.638c-0.238-0.272-0.413-0.598-0.526-0.976
		c-0.112-0.377-0.169-0.793-0.169-1.244c0-0.436,0.053-0.846,0.158-1.227c0.105-0.382,0.266-0.717,0.479-1.006
		c0.214-0.287,0.487-0.514,0.822-0.677c0.335-0.164,0.736-0.246,1.204-0.246c0.39,0,0.736,0.065,1.04,0.199
		c0.305,0.132,0.56,0.317,0.766,0.555c0.207,0.237,0.362,0.521,0.468,0.853c0.104,0.332,0.157,0.691,0.157,1.082
		c0,0.069-0.002,0.158-0.007,0.269c-0.004,0.11-0.01,0.202-0.018,0.28L162.844,267.7L162.844,267.7z M166.349,267.059
		c0-0.242-0.031-0.479-0.093-0.714c-0.062-0.233-0.16-0.438-0.293-0.612c-0.133-0.176-0.303-0.317-0.514-0.426
		c-0.211-0.109-0.464-0.164-0.76-0.164c-0.545,0-0.97,0.168-1.272,0.502c-0.304,0.336-0.487,0.807-0.549,1.414H166.349z"/>
	<path fill="#006838" d="M168.814,261.977c0.047-0.009,0.111-0.015,0.192-0.019c0.082-0.004,0.146-0.006,0.193-0.006
		c0.038,0,0.102,0.002,0.188,0.006c0.085,0.004,0.151,0.01,0.198,0.019v3.457c0.164-0.248,0.397-0.473,0.707-0.672
		c0.307-0.197,0.707-0.298,1.196-0.298c0.365,0,0.701,0.058,1.005,0.17c0.305,0.112,0.562,0.29,0.776,0.531s0.382,0.545,0.502,0.911
		c0.121,0.365,0.183,0.807,0.183,1.32c0,1.035-0.285,1.846-0.854,2.43s-1.39,0.877-2.465,0.877c-0.35,0-0.689-0.033-1.017-0.1
		c-0.326-0.066-0.597-0.14-0.807-0.217v-8.41H168.814z M169.585,269.85c0.179,0.062,0.367,0.107,0.565,0.135
		c0.199,0.029,0.41,0.041,0.638,0.041c0.312,0,0.608-0.051,0.894-0.151c0.284-0.101,0.534-0.257,0.748-0.467
		c0.214-0.212,0.386-0.479,0.514-0.802c0.128-0.322,0.192-0.709,0.192-1.162c0-0.709-0.134-1.266-0.402-1.67
		c-0.27-0.404-0.703-0.607-1.303-0.607c-0.188,0-0.39,0.031-0.606,0.094c-0.22,0.062-0.42,0.167-0.603,0.315
		c-0.184,0.147-0.335,0.345-0.456,0.59s-0.181,0.555-0.181,0.929V269.85L169.585,269.85z"/>
	<path fill="#006838" d="M175.543,269.745c0.171,0.069,0.394,0.13,0.665,0.181c0.272,0.051,0.534,0.076,0.783,0.076
		c0.467,0,0.838-0.104,1.108-0.311c0.273-0.205,0.41-0.461,0.41-0.766c0-0.21-0.041-0.384-0.123-0.52
		c-0.082-0.137-0.191-0.251-0.327-0.346c-0.137-0.094-0.29-0.17-0.462-0.228c-0.172-0.06-0.346-0.119-0.525-0.183
		c-0.194-0.062-0.388-0.131-0.577-0.209c-0.191-0.078-0.36-0.178-0.509-0.299c-0.147-0.121-0.268-0.267-0.356-0.438
		c-0.09-0.171-0.134-0.387-0.134-0.643c0-0.476,0.173-0.86,0.521-1.156c0.346-0.297,0.881-0.444,1.605-0.444
		c0.304,0,0.598,0.027,0.883,0.082c0.283,0.056,0.504,0.113,0.66,0.176c-0.039,0.227-0.095,0.447-0.164,0.665
		c-0.164-0.054-0.372-0.107-0.625-0.162c-0.254-0.056-0.517-0.082-0.789-0.082c-0.476,0-0.812,0.084-1.01,0.25
		c-0.199,0.168-0.3,0.389-0.3,0.66c0,0.148,0.033,0.274,0.101,0.381c0.066,0.105,0.156,0.194,0.27,0.269
		c0.112,0.073,0.24,0.139,0.386,0.192c0.145,0.055,0.298,0.104,0.461,0.151c0.211,0.07,0.423,0.146,0.637,0.228
		c0.215,0.082,0.41,0.189,0.584,0.321c0.176,0.134,0.32,0.302,0.434,0.503c0.112,0.202,0.169,0.455,0.169,0.76
		c0,0.281-0.057,0.535-0.169,0.766c-0.112,0.229-0.271,0.425-0.474,0.584c-0.202,0.16-0.444,0.282-0.725,0.368
		c-0.281,0.086-0.589,0.129-0.924,0.129c-0.374,0-0.707-0.022-0.999-0.07c-0.292-0.047-0.526-0.108-0.706-0.188
		C175.368,270.212,175.442,269.979,175.543,269.745z"/>
	<path fill="#006838" d="M181.349,265.259h-0.747c-0.008-0.039-0.014-0.086-0.018-0.141c-0.004-0.054-0.006-0.112-0.006-0.175
		c0-0.063,0.002-0.125,0.006-0.188c0.004-0.062,0.01-0.112,0.018-0.151h1.52v5.959c-0.047,0.008-0.111,0.014-0.192,0.018
		c-0.082,0.004-0.146,0.006-0.192,0.006c-0.039,0-0.102-0.002-0.188-0.006s-0.152-0.01-0.199-0.018L181.349,265.259L181.349,265.259
		z M180.964,263.145c-0.008-0.069-0.014-0.155-0.019-0.258c-0.004-0.101-0.006-0.187-0.006-0.257c0-0.062,0.002-0.14,0.006-0.233
		c0.005-0.092,0.011-0.17,0.019-0.232c0.07-0.008,0.156-0.014,0.257-0.018s0.188-0.006,0.257-0.006c0.062,0,0.142,0.002,0.234,0.006
		s0.171,0.01,0.231,0.018c0.009,0.062,0.015,0.141,0.019,0.232c0.004,0.094,0.006,0.172,0.006,0.233c0,0.07-0.002,0.156-0.006,0.257
		c-0.004,0.103-0.01,0.188-0.019,0.258c-0.062,0.008-0.14,0.015-0.231,0.018c-0.094,0.005-0.172,0.006-0.234,0.006
		c-0.069,0-0.156-0.001-0.257-0.006C181.12,263.158,181.034,263.152,180.964,263.145z"/>
	<path fill="#006838" d="M184.445,265.259h-1.016c-0.008-0.039-0.014-0.09-0.018-0.151c-0.004-0.062-0.007-0.125-0.007-0.188
		s0.003-0.121,0.007-0.176s0.01-0.102,0.018-0.141h1.016v-1.121l0.726-0.713h0.047v1.834h1.612c0.007,0.039,0.013,0.086,0.018,0.141
		c0.003,0.055,0.006,0.113,0.006,0.176s-0.003,0.125-0.006,0.188c-0.005,0.062-0.011,0.112-0.018,0.151h-1.612v3.88
		c0,0.193,0.025,0.348,0.076,0.461c0.051,0.112,0.117,0.199,0.198,0.262c0.082,0.062,0.175,0.104,0.279,0.123
		c0.105,0.02,0.213,0.029,0.321,0.029c0.271,0,0.511-0.035,0.713-0.104c0.054,0.202,0.093,0.421,0.116,0.653
		c-0.279,0.086-0.607,0.129-0.98,0.129c-0.443,0-0.805-0.118-1.081-0.355c-0.275-0.236-0.415-0.625-0.415-1.163V265.259
		L184.445,265.259z"/>
	<path fill="#006838" d="M188.627,267.7c0,0.795,0.183,1.379,0.55,1.753c0.365,0.373,0.914,0.561,1.646,0.561
		c0.297,0,0.57-0.024,0.824-0.076c0.252-0.051,0.5-0.119,0.742-0.203c0.038,0.084,0.069,0.189,0.093,0.314
		c0.023,0.124,0.039,0.237,0.047,0.34c-0.226,0.101-0.49,0.178-0.794,0.232c-0.305,0.055-0.636,0.082-0.993,0.082
		c-0.515,0-0.955-0.076-1.326-0.229c-0.369-0.151-0.673-0.363-0.91-0.638c-0.238-0.272-0.413-0.598-0.526-0.976
		c-0.111-0.377-0.169-0.793-0.169-1.244c0-0.436,0.053-0.846,0.158-1.227c0.104-0.382,0.264-0.717,0.479-1.006
		c0.215-0.287,0.488-0.514,0.823-0.677c0.335-0.164,0.736-0.246,1.204-0.246c0.389,0,0.735,0.065,1.039,0.199
		c0.304,0.132,0.559,0.317,0.766,0.555c0.206,0.237,0.361,0.521,0.468,0.853c0.105,0.332,0.157,0.691,0.157,1.082
		c0,0.069-0.002,0.158-0.006,0.269s-0.01,0.202-0.018,0.28L188.627,267.7L188.627,267.7z M192.132,267.059
		c0-0.242-0.031-0.479-0.094-0.714c-0.062-0.233-0.159-0.438-0.291-0.612c-0.134-0.176-0.306-0.317-0.516-0.426
		c-0.21-0.109-0.464-0.164-0.759-0.164c-0.546,0-0.971,0.168-1.272,0.502c-0.306,0.336-0.487,0.807-0.551,1.414H192.132z"/>
	<path fill="#006838" d="M199.527,262.163c0.056-0.008,0.129-0.015,0.224-0.019c0.094-0.004,0.179-0.006,0.257-0.006
		c0.085,0,0.173,0.002,0.263,0.006s0.162,0.011,0.217,0.019l2.804,8.399c-0.047,0.008-0.112,0.014-0.198,0.018
		s-0.167,0.006-0.245,0.006c-0.07,0-0.145-0.002-0.223-0.006c-0.077-0.004-0.145-0.01-0.198-0.018l-0.7-2.139h-3.459l-0.666,2.139
		c-0.062,0.008-0.134,0.014-0.216,0.018c-0.081,0.004-0.157,0.006-0.228,0.006c-0.078,0-0.158-0.002-0.24-0.006
		c-0.081-0.004-0.146-0.01-0.191-0.018L199.527,262.163z M201.49,267.677l-1.508-4.673l-1.482,4.673H201.49z"/>
	<path fill="#006838" d="M204.55,264.604c0.062-0.008,0.123-0.014,0.182-0.018c0.06-0.004,0.114-0.006,0.169-0.006
		c0.062,0,0.12,0.002,0.176,0.006c0.055,0.004,0.112,0.01,0.176,0.018c0.016,0.141,0.026,0.315,0.035,0.525
		c0.008,0.211,0.012,0.395,0.012,0.549c0.078-0.14,0.179-0.281,0.304-0.426c0.124-0.145,0.271-0.273,0.438-0.393
		c0.167-0.116,0.358-0.211,0.578-0.285c0.218-0.074,0.455-0.111,0.713-0.111c0.685,0,1.184,0.205,1.494,0.613
		c0.312,0.408,0.468,0.982,0.468,1.724v3.763c-0.046,0.008-0.11,0.014-0.192,0.018s-0.146,0.006-0.192,0.006
		c-0.039,0-0.103-0.002-0.188-0.006c-0.086-0.004-0.151-0.01-0.198-0.018v-3.528c0-0.662-0.104-1.138-0.311-1.425
		c-0.206-0.288-0.517-0.434-0.928-0.434c-0.273,0-0.53,0.055-0.771,0.164c-0.242,0.108-0.449,0.268-0.625,0.473
		c-0.176,0.207-0.312,0.463-0.414,0.767s-0.151,0.649-0.151,1.039v2.944c-0.048,0.008-0.111,0.014-0.193,0.018
		s-0.146,0.006-0.192,0.006c-0.039,0-0.101-0.002-0.187-0.006s-0.152-0.01-0.199-0.018v-5.959H204.55z"/>
	<path fill="#006838" d="M214.516,266.625c0-0.514-0.121-0.891-0.362-1.127c-0.241-0.237-0.6-0.355-1.073-0.355
		c-0.312,0-0.597,0.021-0.854,0.063c-0.257,0.043-0.485,0.096-0.688,0.157c-0.039-0.069-0.072-0.172-0.101-0.305
		c-0.026-0.132-0.041-0.257-0.041-0.373c0.203-0.062,0.452-0.114,0.748-0.157c0.297-0.044,0.601-0.064,0.912-0.064
		c0.755,0,1.315,0.166,1.682,0.497c0.367,0.331,0.55,0.852,0.55,1.561v3.937c-0.272,0.056-0.604,0.108-0.992,0.164
		c-0.392,0.056-0.76,0.082-1.11,0.082c-0.724,0-1.295-0.146-1.712-0.433c-0.416-0.289-0.625-0.756-0.625-1.402
		c0-0.312,0.062-0.59,0.182-0.835c0.121-0.245,0.288-0.451,0.503-0.619c0.215-0.167,0.471-0.294,0.771-0.38
		c0.3-0.085,0.629-0.128,0.986-0.128c0.28,0,0.521,0.01,0.725,0.028c0.203,0.02,0.37,0.037,0.503,0.053L214.516,266.625
		L214.516,266.625z M214.516,267.665c-0.133-0.017-0.298-0.033-0.497-0.054c-0.198-0.019-0.387-0.028-0.565-0.028
		c-0.584,0-1.035,0.108-1.355,0.327c-0.318,0.219-0.479,0.529-0.479,0.935c0,0.259,0.049,0.464,0.146,0.619
		c0.097,0.156,0.223,0.275,0.379,0.356c0.156,0.082,0.328,0.137,0.515,0.164c0.188,0.026,0.375,0.041,0.562,0.041
		c0.241,0,0.468-0.013,0.678-0.035c0.21-0.023,0.417-0.055,0.619-0.094L214.516,267.665L214.516,267.665z"/>
	<path fill="#006838" d="M217.226,261.977c0.047-0.009,0.111-0.015,0.193-0.019s0.146-0.006,0.191-0.006
		c0.039,0,0.102,0.002,0.188,0.006s0.152,0.01,0.199,0.019v7.207c0,0.203,0.022,0.36,0.069,0.475
		c0.047,0.113,0.104,0.193,0.176,0.244c0.07,0.052,0.146,0.082,0.232,0.095c0.086,0.012,0.164,0.019,0.234,0.019
		c0.085,0,0.175-0.007,0.268-0.019c0.094-0.013,0.172-0.024,0.234-0.041c0.039,0.094,0.065,0.194,0.082,0.304
		c0.016,0.11,0.026,0.21,0.035,0.305c-0.109,0.039-0.232,0.065-0.369,0.082c-0.137,0.016-0.263,0.022-0.379,0.022
		c-0.164,0-0.327-0.019-0.49-0.053c-0.164-0.035-0.312-0.103-0.438-0.199c-0.128-0.097-0.23-0.229-0.31-0.396
		c-0.078-0.168-0.117-0.389-0.117-0.66L217.226,261.977L217.226,261.977z"/>
	<path fill="#006838" d="M222.46,270.586h-0.224c-0.069,0-0.149-0.002-0.238-0.006c-0.09-0.004-0.157-0.01-0.204-0.018l-2.15-5.959
		c0.047-0.008,0.113-0.014,0.199-0.018s0.167-0.006,0.245-0.006c0.062,0,0.14,0.002,0.232,0.006c0.094,0.004,0.164,0.01,0.212,0.018
		l1.975,5.795l1.938-5.795c0.048-0.008,0.109-0.014,0.188-0.018s0.147-0.006,0.211-0.006s0.133,0.002,0.211,0.006
		c0.077,0.004,0.14,0.01,0.187,0.018l-2.616,7.723c-0.141,0.429-0.339,0.729-0.597,0.9c-0.257,0.17-0.562,0.256-0.91,0.256
		c-0.164,0-0.33-0.016-0.496-0.047c-0.168-0.031-0.308-0.062-0.416-0.094c0-0.24,0.059-0.459,0.176-0.654
		c0.062,0.023,0.156,0.049,0.28,0.076s0.265,0.041,0.421,0.041c0.226,0,0.405-0.055,0.543-0.164
		c0.137-0.107,0.256-0.312,0.355-0.606L222.46,270.586z"/>
	<path fill="#006838" d="M225.836,270.376l3.47-5.117h-3.119c-0.008-0.039-0.014-0.086-0.018-0.141
		c-0.004-0.054-0.006-0.112-0.006-0.175c0-0.063,0.002-0.125,0.006-0.188c0.004-0.062,0.01-0.112,0.018-0.151h4.299l0.048,0.151
		l-3.471,5.152h3.282c0.008,0.039,0.014,0.09,0.018,0.151c0.005,0.062,0.007,0.125,0.007,0.188s-0.002,0.121-0.007,0.175
		c-0.004,0.056-0.01,0.103-0.018,0.142h-4.475L225.836,270.376z"/>
	<path fill="#006838" d="M232.191,267.7c0,0.795,0.185,1.379,0.551,1.753c0.365,0.373,0.914,0.561,1.646,0.561
		c0.295,0,0.57-0.024,0.823-0.076c0.253-0.051,0.501-0.119,0.742-0.203c0.038,0.084,0.068,0.189,0.093,0.314
		c0.022,0.124,0.039,0.237,0.047,0.34c-0.226,0.101-0.49,0.178-0.794,0.232c-0.304,0.054-0.636,0.082-0.993,0.082
		c-0.514,0-0.956-0.076-1.326-0.229c-0.369-0.151-0.674-0.363-0.911-0.638c-0.236-0.272-0.413-0.598-0.525-0.976
		c-0.112-0.377-0.168-0.793-0.168-1.244c0-0.436,0.052-0.846,0.157-1.227c0.104-0.382,0.265-0.717,0.479-1.006
		c0.213-0.287,0.488-0.514,0.822-0.677c0.336-0.164,0.735-0.246,1.204-0.246c0.39,0,0.734,0.065,1.04,0.199
		c0.303,0.132,0.559,0.317,0.765,0.555c0.206,0.238,0.362,0.521,0.468,0.853c0.106,0.332,0.157,0.691,0.157,1.082
		c0,0.069-0.002,0.158-0.006,0.269s-0.01,0.202-0.019,0.28L232.191,267.7L232.191,267.7z M235.697,267.059
		c0-0.242-0.03-0.479-0.094-0.714c-0.062-0.233-0.16-0.438-0.292-0.612c-0.133-0.176-0.304-0.317-0.515-0.426
		c-0.21-0.109-0.463-0.164-0.759-0.164c-0.546,0-0.971,0.168-1.273,0.502c-0.303,0.336-0.487,0.807-0.55,1.414H235.697z"/>
	<path fill="#006838" d="M238.161,264.604c0.062-0.008,0.123-0.014,0.181-0.018c0.059-0.004,0.114-0.006,0.169-0.006
		c0.062,0,0.121,0.002,0.176,0.006c0.056,0.004,0.113,0.01,0.176,0.018c0.017,0.141,0.027,0.307,0.035,0.496
		c0.008,0.191,0.013,0.364,0.013,0.521c0.154-0.288,0.373-0.532,0.653-0.73c0.279-0.197,0.649-0.298,1.109-0.298
		c0.039,0,0.08,0,0.123,0c0.042,0,0.091,0.005,0.146,0.013c0.023,0.133,0.035,0.256,0.035,0.373c0,0.125-0.012,0.246-0.035,0.362
		c-0.062-0.008-0.109-0.012-0.146-0.012s-0.072,0-0.111,0c-0.529,0-0.955,0.167-1.272,0.502c-0.32,0.335-0.479,0.892-0.479,1.671
		v3.061c-0.047,0.008-0.111,0.015-0.192,0.019c-0.082,0.004-0.146,0.006-0.193,0.006c-0.039,0-0.102-0.002-0.188-0.006
		c-0.085-0.004-0.15-0.011-0.197-0.019L238.161,264.604L238.161,264.604z"/>
</g>
</svg>
